<svg width="316" height="163" viewBox="0 0 316 163" fill="none" xmlns="http://www.w3.org/2000/svg">
<path d="M8.91282 144.226C4.05128 144.226 0 148.277 0 153.138C0 158.405 4.05128 162.051 8.91282 162.051C13.7744 162.051 17.8256 158 17.8256 153.138C17.8256 148.277 13.7744 144.226 8.91282 144.226Z" fill="#E8D6DD"/>
<path d="M68.4665 162.051C73.3889 162.051 77.3794 158.061 77.3794 153.138C77.3794 148.216 73.3889 144.226 68.4665 144.226C63.5441 144.226 59.5537 148.216 59.5537 153.138C59.5537 158.061 63.5441 162.051 68.4665 162.051Z" fill="#E8D6DD"/>
<path d="M128.426 162.051C133.348 162.051 137.338 158.061 137.338 153.138C137.338 148.216 133.348 144.226 128.426 144.226C123.503 144.226 119.513 148.216 119.513 153.138C119.513 158.061 123.503 162.051 128.426 162.051Z" fill="#E8D6DD"/>
<path d="M187.979 162.051C192.902 162.051 196.892 158.061 196.892 153.138C196.892 148.216 192.902 144.226 187.979 144.226C183.057 144.226 179.066 148.216 179.066 153.138C179.066 158.061 183.057 162.051 187.979 162.051Z" fill="#E8D6DD"/>
<path d="M247.533 144.226C242.671 144.226 238.62 148.277 238.62 153.138C238.62 158 242.671 162.051 247.533 162.051C252.394 162.051 256.446 158 256.446 153.138C256.446 148.277 252.394 144.226 247.533 144.226Z" fill="#E8D6DD"/>
<path d="M307.088 144.226C302.226 144.226 298.175 148.277 298.175 153.138C298.175 158 302.226 162.051 307.088 162.051C311.949 162.051 316 158 316 153.138C316 148.277 312.354 144.226 307.088 144.226Z" fill="#E8D6DD"/>
<path d="M8.91282 96.4204C4.05128 96.4204 0 100.067 0 105.333C0 110.195 4.05128 114.246 8.91282 114.246C13.7744 114.246 17.8256 110.195 17.8256 105.333C17.8256 100.067 13.7744 96.4204 8.91282 96.4204Z" fill="#E8D6DD"/>
<path d="M68.4665 96.4204C63.605 96.4204 59.5537 100.472 59.5537 105.333C59.5537 110.195 63.605 114.246 68.4665 114.246C73.3281 114.246 77.3794 110.195 77.3794 105.333C77.3794 100.067 73.3281 96.4204 68.4665 96.4204Z" fill="#E8D6DD"/>
<path d="M128.426 96.4204C123.564 96.4204 119.513 100.472 119.513 105.333C119.513 110.195 123.564 114.246 128.426 114.246C133.287 114.246 137.338 110.195 137.338 105.333C137.338 100.067 133.287 96.4204 128.426 96.4204Z" fill="#E8D6DD"/>
<path d="M187.979 96.4204C183.118 96.4204 179.066 100.472 179.066 105.333C179.066 110.195 183.118 114.246 187.979 114.246C192.841 114.246 196.892 110.195 196.892 105.333C196.892 100.067 192.841 96.4204 187.979 96.4204Z" fill="#E8D6DD"/>
<path d="M247.533 96.4204C242.671 96.4204 238.62 100.472 238.62 105.333C238.62 110.195 242.671 114.246 247.533 114.246C252.394 114.246 256.446 110.195 256.446 105.333C256.446 100.067 252.394 96.4204 247.533 96.4204Z" fill="#E8D6DD"/>
<path d="M307.088 96.4204C302.226 96.4204 298.175 100.472 298.175 105.333C298.175 110.195 302.226 114.246 307.088 114.246C311.949 114.246 316 110.195 316 105.333C316 100.067 312.354 96.4204 307.088 96.4204Z" fill="#E8D6DD"/>
<path d="M8.91282 48.2102C4.05128 48.2102 0 52.2615 0 57.123C0 61.9846 4.05128 66.0358 8.91282 66.0358C13.7744 66.0358 17.8256 61.9846 17.8256 57.123C17.8256 52.2615 13.7744 48.2102 8.91282 48.2102Z" fill="#E8D6DD"/>
<path d="M68.4665 66.0358C73.3889 66.0358 77.3794 62.0454 77.3794 57.123C77.3794 52.2006 73.3889 48.2102 68.4665 48.2102C63.5441 48.2102 59.5537 52.2006 59.5537 57.123C59.5537 62.0454 63.5441 66.0358 68.4665 66.0358Z" fill="#E8D6DD"/>
<path d="M128.426 66.0358C133.348 66.0358 137.338 62.0454 137.338 57.123C137.338 52.2006 133.348 48.2102 128.426 48.2102C123.503 48.2102 119.513 52.2006 119.513 57.123C119.513 62.0454 123.503 66.0358 128.426 66.0358Z" fill="#E8D6DD"/>
<path d="M187.979 66.0358C192.902 66.0358 196.892 62.0454 196.892 57.123C196.892 52.2006 192.902 48.2102 187.979 48.2102C183.057 48.2102 179.066 52.2006 179.066 57.123C179.066 62.0454 183.057 66.0358 187.979 66.0358Z" fill="#E8D6DD"/>
<path d="M247.533 48.2102C242.671 48.2102 238.62 52.2615 238.62 57.123C238.62 61.9846 242.671 66.0358 247.533 66.0358C252.394 66.0358 256.446 61.9846 256.446 57.123C256.446 52.2615 252.394 48.2102 247.533 48.2102Z" fill="#E8D6DD"/>
<path d="M307.088 48.2102C302.226 48.2102 298.175 52.2615 298.175 57.123C298.175 61.9846 302.226 66.0358 307.088 66.0358C311.949 66.0358 316 61.9846 316 57.123C316 52.2615 312.354 48.2102 307.088 48.2102Z" fill="#E8D6DD"/>
<path d="M8.91282 0C4.05128 0 0 4.05128 0 8.91282C0 13.7744 4.05128 17.8256 8.91282 17.8256C13.7744 17.8256 17.8256 13.7744 17.8256 8.91282C17.8256 4.05128 13.7744 0 8.91282 0Z" fill="#E8D6DD"/>
<path d="M68.4665 17.8256C73.3889 17.8256 77.3794 13.8352 77.3794 8.91282C77.3794 3.99041 73.3889 0 68.4665 0C63.5441 0 59.5537 3.99041 59.5537 8.91282C59.5537 13.8352 63.5441 17.8256 68.4665 17.8256Z" fill="#E8D6DD"/>
<path d="M128.426 17.8256C133.348 17.8256 137.338 13.8352 137.338 8.91282C137.338 3.99041 133.348 0 128.426 0C123.503 0 119.513 3.99041 119.513 8.91282C119.513 13.8352 123.503 17.8256 128.426 17.8256Z" fill="#E8D6DD"/>
<path d="M187.979 17.8256C192.902 17.8256 196.892 13.8352 196.892 8.91282C196.892 3.99041 192.902 0 187.979 0C183.057 0 179.066 3.99041 179.066 8.91282C179.066 13.8352 183.057 17.8256 187.979 17.8256Z" fill="#E8D6DD"/>
<path d="M247.533 0C242.671 0 238.62 4.05128 238.62 8.91282C238.62 13.7744 242.671 17.8256 247.533 17.8256C252.394 17.8256 256.446 13.7744 256.446 8.91282C256.446 4.05128 252.394 0 247.533 0Z" fill="#E8D6DD"/>
<path d="M307.088 0C302.226 0 298.175 4.05128 298.175 8.91282C298.175 13.7744 302.226 17.8256 307.088 17.8256C311.949 17.8256 316 13.7744 316 8.91282C316 4.05128 312.354 0 307.088 0Z" fill="#E8D6DD"/>
</svg>
