<svg width="43" height="41" viewBox="0 0 43 41" fill="none" xmlns="http://www.w3.org/2000/svg">
<path d="M41.3955 2.66905C40.9179 2.19144 40.2674 1.89502 39.5428 1.89502H27.5697C26.8451 1.89502 26.1945 2.19147 25.717 2.66905C25.2394 3.14664 24.9429 3.79717 24.9429 4.52181V18.5781H4.74321C4.20796 18.5781 3.72216 18.7922 3.37628 19.1462C3.0222 19.5003 2.80809 19.9779 2.80809 20.5132V22.6624H1.16117C0.815316 22.6624 0.543579 22.9424 0.543579 23.28V36.6858C0.543579 37.7068 0.955313 38.6291 1.63058 39.2961C2.29759 39.9631 3.22812 40.3831 4.24097 40.3831H39.551C40.2756 40.3831 40.9262 40.0867 41.4037 39.6091C41.8813 39.1315 42.1696 38.481 42.1696 37.7564V4.52129C42.1613 3.79664 41.8649 3.14608 41.3955 2.66853V2.66905ZM4.05124 20.5138C4.05124 20.3161 4.13359 20.1432 4.25711 20.0197C4.38886 19.8962 4.56179 19.8138 4.75942 19.8138H26.6554C26.853 19.8138 27.0259 19.8962 27.1577 20.0197C27.2895 20.1515 27.3636 20.3244 27.3636 20.5138V22.663H4.05972V20.5138H4.05124ZM19.8286 28.806C19.5568 28.6001 19.178 28.6413 18.964 28.913C18.9557 28.9213 17.9429 30.1894 17.77 32.6021H15.7113C15.6784 28.7648 17.2265 26.8297 17.2347 26.8215C17.4405 26.5497 17.3994 26.1709 17.1276 25.9569C16.8559 25.7428 16.4771 25.7922 16.263 26.0639C16.2548 26.0721 14.4514 28.3202 14.4761 32.6022H12.5822C12.7304 30.6424 13.5127 29.6789 13.5127 29.6706C13.7185 29.4071 13.6774 29.0201 13.4056 28.806C13.1421 28.6002 12.7551 28.6413 12.541 28.9131C12.541 28.9213 11.52 30.1894 11.347 32.6022H8.15196C8.10255 32.2399 8.07785 31.8858 8.07785 31.5235C8.07785 29.4154 8.92604 27.5132 10.3095 26.1298C11.6929 24.7464 13.5951 23.8982 15.7032 23.8982C17.803 23.8982 19.7134 24.7464 21.0968 26.1298C22.4803 27.5132 23.3285 29.4154 23.3285 31.5235C23.3285 31.8858 23.3038 32.2481 23.2543 32.6022H19.0052C19.1535 30.6424 19.9357 29.6789 19.9357 29.6706C20.1498 29.4071 20.1004 29.0201 19.8287 28.806L19.8286 28.806ZM4.23193 39.149C3.55669 39.149 2.93909 38.869 2.49444 38.4244C2.04979 37.9797 1.76979 37.3621 1.76979 36.6869V23.9068H11.1823C10.54 24.2856 9.95531 24.7385 9.4283 25.2655C7.82256 26.8712 6.83441 29.0781 6.83441 31.532C6.83441 34.2001 8.03668 36.7281 10.12 38.4162C10.4577 38.6879 10.8117 38.935 11.1823 39.1573H4.23231L4.23193 39.149ZM10.902 37.4527C9.75738 36.5222 8.8927 35.2788 8.43164 33.8377H11.3467C11.3632 34.1671 11.3961 34.5129 11.4455 34.8752C11.4949 35.2129 11.8078 35.4434 12.1455 35.4022C12.4831 35.3528 12.7137 35.0399 12.6642 34.7023C12.6231 34.4059 12.5901 34.1177 12.5737 33.8459H14.5335C14.5582 34.1835 14.5994 34.5211 14.6488 34.8834C14.6982 35.2211 15.0111 35.4516 15.3487 35.4105C15.6863 35.3611 15.9169 35.0481 15.8757 34.7105C15.8346 34.4141 15.8016 34.1341 15.7769 33.8541H17.7614C17.7779 34.1835 17.8108 34.5294 17.8602 34.8917C17.9096 35.2293 18.2226 35.4599 18.5519 35.4187C18.8896 35.3693 19.1201 35.0564 19.079 34.7187C19.0378 34.4223 19.0048 34.1341 18.9884 33.8623H22.9575C22.5046 35.2951 21.6317 36.5468 20.4871 37.4774C19.1202 38.5808 17.4403 39.1737 15.6863 39.1737C13.8748 39.149 12.2113 38.5149 10.902 37.4527L10.902 37.4527ZM29.6276 36.6869C29.6276 37.3621 29.3558 37.9797 28.9029 38.4244C28.4583 38.869 27.8407 39.149 27.1654 39.149H20.2072C20.5777 38.9267 20.9318 38.6797 21.2694 38.4079C23.1058 36.9174 24.2586 34.7765 24.5056 32.446C24.5385 32.1331 24.555 31.8284 24.555 31.5319C24.555 29.0863 23.5668 26.8712 21.9611 25.2654C21.4423 24.7467 20.8494 24.2855 20.2153 23.9067H29.6278L29.6276 36.6869ZM38.5206 22.5478V35.7563C38.5206 36.0281 38.4053 36.2751 38.2324 36.448C38.0512 36.6292 37.8042 36.7362 37.5407 36.7362H30.8706C30.9365 32.2648 30.8706 27.7521 30.8706 23.2808C30.8706 22.9432 30.5989 22.6632 30.253 22.6632H28.5979V6.523C28.5979 6.25126 28.7132 6.00422 28.8861 5.83129C29.0673 5.65014 29.3143 5.54308 29.5778 5.54308H37.541C37.8127 5.54308 38.0598 5.65014 38.2327 5.83129C38.4139 6.01245 38.5209 6.25949 38.5209 6.523L38.5206 22.5478ZM40.9251 37.765C40.9251 38.1438 40.7687 38.4897 40.5134 38.745C40.2663 39.0002 39.9123 39.1567 39.5334 39.1567H29.9237C30.2284 38.8191 30.4672 38.4238 30.6319 37.9874H37.5325C38.1418 37.9874 38.6935 37.7404 39.097 37.3369C39.5005 36.9334 39.7475 36.3816 39.7475 35.7723V6.52298C39.7475 5.91361 39.5005 5.35368 39.097 4.95842C38.6935 4.55492 38.1336 4.30789 37.5325 4.30789H29.5693C28.9599 4.30789 28.4 4.55492 28.0047 4.95842C27.6012 5.36192 27.3542 5.91367 27.3542 6.52298V18.7106C27.1318 18.6282 26.893 18.5788 26.646 18.5788H26.1849V4.52258C26.1849 4.14379 26.3413 3.79793 26.5966 3.54263C26.8519 3.28733 27.1977 3.1309 27.5765 3.1309H39.5413C39.9201 3.1309 40.2659 3.28736 40.5212 3.54263C40.7765 3.79791 40.933 4.14376 40.933 4.52258V37.7659L40.9251 37.765Z" fill="#B2626F"/>
<path d="M5.4184 7.38733C5.58309 8.0708 5.97835 8.70487 6.55479 9.1578V12.3117C6.55479 12.814 6.76066 13.2669 7.09004 13.5962C7.41943 13.9256 7.88057 14.1315 8.37461 14.1315C8.87692 14.1315 9.32986 13.9256 9.65917 13.5962C9.98848 13.2669 10.1944 12.8139 10.1944 12.3117V11.2988L11.3637 11.9741V15.6714C11.3637 16.1737 11.5696 16.6266 11.899 16.9559C12.2283 17.2853 12.6813 17.4912 13.1835 17.4912C13.6858 17.4912 14.1388 17.2853 14.4681 16.9559C14.7974 16.6266 15.0033 16.1736 15.0033 15.6714V13.2751C15.3821 13.2175 15.7527 13.094 16.0903 12.9128C16.5844 12.6493 17.1362 12.147 17.3832 11.6447C17.8114 10.8706 17.902 9.99773 17.6879 9.20721C17.4738 8.41669 16.8562 7.62616 16.1398 7.20621L14.5011 6.25924L10.2109 3.78061C9.46977 3.35241 8.56396 3.23712 7.74054 3.45946C7.53467 3.5171 7.34528 3.59122 7.15588 3.6818L0.930483 0.0832618C0.510519 -0.155544 0 0.149139 0 0.618513V3.39355C0 3.64058 0.148227 3.85469 0.362323 3.9535L5.32778 6.81911C5.34425 7.01674 5.36896 7.1979 5.41836 7.3873L5.4184 7.38733ZM6.8183 5.58396C7.09004 5.11458 7.53471 4.78523 8.05347 4.64519C8.57224 4.50516 9.12399 4.57108 9.59334 4.84282L14.1306 7.46141C14.1553 7.47788 14.18 7.48611 14.1965 7.49435L15.5305 8.26018C16.0328 8.5978 16.3458 8.91071 16.5022 9.51184C16.634 10.0059 16.5846 10.5494 16.321 11.0188C16.0905 11.3811 15.9011 11.6035 15.514 11.8175C15.1929 11.9905 14.8306 12.0728 14.46 12.0563C14.0894 12.0152 13.7683 12.2951 13.7683 12.6739V15.6631C13.7683 15.8278 13.7024 15.9678 13.5954 16.0748C13.4883 16.1819 13.3401 16.2477 13.1836 16.2477C13.0189 16.2477 12.879 16.1819 12.7719 16.0748C12.6648 15.9678 12.599 15.8195 12.599 15.6631V11.6117C12.599 11.3894 12.4837 11.1917 12.2861 11.0764L9.93098 9.71772C9.83216 9.64361 9.70865 9.60244 9.57689 9.60244C9.23104 9.60244 8.9593 9.87418 8.9593 10.22V12.2951C8.9593 12.4598 8.89342 12.5998 8.78637 12.7069C8.67932 12.8139 8.5311 12.8798 8.37464 12.8798C8.21817 12.8798 8.06995 12.8139 7.9629 12.7069C7.85585 12.5998 7.78997 12.4516 7.78997 12.2951V8.82834C7.78997 8.61423 7.68292 8.4166 7.50176 8.30132C7.04063 8.01311 6.73594 7.56844 6.61246 7.07436C6.48895 6.59674 6.54659 6.0533 6.81833 5.58388L6.8183 5.58396ZM1.23526 1.68902L6.09366 4.49703C5.97014 4.64525 5.85485 4.80171 5.75603 4.97464C5.65722 5.14757 5.57488 5.32872 5.509 5.50989L1.23521 3.04775L1.23526 1.68902Z" fill="#B2626F"/>
</svg>
