<svg width="85" height="68" viewBox="0 0 85 68" fill="none" xmlns="http://www.w3.org/2000/svg">
<g id="Group">
<path id="Vector" d="M63.915 31.464C55.4405 26.3124 49.342 15.8509 47.5996 3.24951C45.8572 15.8509 39.6795 26.3917 31.2842 31.464C29.621 32.4943 25.5818 34.0001 25.5818 34.0001C25.5818 34.0001 29.7002 35.5059 31.2842 36.5362C39.6795 41.6877 45.8572 52.1493 47.5996 64.7507C49.342 52.1493 55.5197 41.6085 63.915 36.5362C65.5782 35.5059 69.6174 34.0001 69.6174 34.0001C69.6174 34.0001 65.5782 32.4943 63.915 31.464Z" fill="#E8D6DD"/>
<path id="Vector_2" d="M19.2458 23.7764C15.0482 21.9535 11.9593 18.1493 11.0881 13.6318C10.2169 18.1493 7.12808 21.9535 2.85123 23.7764C2.05922 24.1726 0 24.6482 0 24.6482C0 24.6482 2.05922 25.2029 2.85123 25.5199C7.12808 27.422 10.2169 31.2262 11.0881 35.7437C11.9593 31.2262 15.0482 27.422 19.2458 25.5992C20.0378 25.2029 22.097 24.7274 22.097 24.7274C22.097 24.7274 20.0378 24.1726 19.2458 23.7764Z" fill="#E8D6DD"/>
<path id="Vector_3" d="M81.3392 10.1445C77.0623 8.32168 73.9735 4.51748 73.1023 0C72.2311 4.51748 69.1423 8.32168 64.9446 10.1445C64.1526 10.5408 62.0934 11.0163 62.0934 11.0163C62.0934 11.0163 64.1526 11.5711 64.9446 11.8881C69.1423 13.711 72.2311 17.5152 73.1023 22.0326C73.9735 17.5152 77.0623 13.711 81.26 11.8881C82.052 11.4918 84.1112 11.0163 84.1112 11.0163C84.1112 11.0163 82.1312 10.5408 81.3392 10.1445Z" fill="#E8D6DD"/>
<path id="Vector_4" d="M81.3392 56.0327C77.1416 54.2099 74.0527 50.4057 73.1815 45.8882C72.3103 50.4057 69.2215 54.2099 65.0238 56.0327C64.2318 56.429 62.1726 56.9045 62.1726 56.9045C62.1726 56.9045 64.1526 57.4593 64.9446 57.8555C69.1423 59.6784 72.2311 63.4826 73.1023 68.0001C73.9735 63.4826 77.0624 59.6784 81.26 57.8555C82.052 57.4593 84.1112 56.9838 84.1112 56.9838C84.1112 56.9838 82.1312 56.3497 81.3392 56.0327Z" fill="#E8D6DD"/>
</g>
</svg>
