<svg width="53" height="59" viewBox="0 0 53 59" fill="none" xmlns="http://www.w3.org/2000/svg">
<path d="M14.9513 8.16321C14.8023 8.01657 14.6532 7.96769 14.4545 7.96769L9.13964 7.86993L11.9709 5.18144C12.0703 5.08368 12.1696 4.93703 12.1696 4.74151C12.1696 4.59486 12.12 4.39934 12.0206 4.30157C11.9213 4.20381 11.7723 4.10605 11.5736 4.10605C11.4246 4.10605 11.2259 4.15493 11.1265 4.25269L8.29522 6.94118L8.44424 0.684341C8.44424 0.488815 8.39457 0.342171 8.24555 0.195526C8.09653 0.097763 7.94752 0 7.74883 0C7.35145 0 7.05342 0.293289 7.05342 0.684341L6.95408 6.94118L3.47704 3.42171C3.32802 3.32394 3.17901 3.22618 3.02999 3.22618C2.8313 3.22618 2.68229 3.27506 2.58294 3.42171C2.43393 3.51947 2.38426 3.66611 2.38426 3.81276C2.38426 3.9594 2.43393 4.10605 2.53327 4.25269L5.96064 7.77216L0.695408 7.6744C0.298032 7.6744 0 7.96769 0 8.35874C0 8.74979 0.298032 9.04308 0.695408 9.04308L5.96064 9.18973L3.12934 11.8782C2.88098 12.1226 2.88098 12.5137 3.12934 12.7581C3.22868 12.8558 3.37769 12.9536 3.57638 12.9536C3.7254 12.9536 3.92409 12.9047 4.02343 12.807L6.85473 10.1185L6.75539 16.3753C6.75539 16.7664 7.05342 17.0597 7.4508 17.0597C7.64949 17.0597 7.7985 17.0108 7.94752 16.8641C8.09653 16.7175 8.1462 16.5708 8.1462 16.3753L8.24555 10.1185L11.6729 13.6379C11.7723 13.7357 11.9213 13.8335 12.12 13.8335C12.269 13.8335 12.418 13.7846 12.567 13.6868C12.8154 13.4424 12.8154 13.0514 12.567 12.807L9.13964 9.28749L14.4545 9.38525C14.8519 9.38525 15.15 9.09196 15.15 8.70091C15.15 8.4565 15.1003 8.30986 14.9513 8.16321Z" fill="#E8D6DD"/>
<path d="M25.1341 2.49296L24.7367 0.586578L24.1406 3.86164C22.2034 14.2734 16.2924 23.5609 7.59985 29.7688C16.0441 36.8078 21.9054 46.4375 24.2896 57.0936L24.687 59L25.2831 55.7249C27.2203 45.3132 33.1312 36.0257 41.8238 29.8177C33.3796 22.7299 27.5183 13.1491 25.1341 2.49296Z" fill="#E8D6DD"/>
<path d="M46.0459 33.3861L45.8472 32.604L45.5989 33.9727C44.8041 38.3231 42.3205 42.1848 38.7441 44.7755C42.2709 47.7084 44.7048 51.7167 45.6982 56.1649L45.8969 56.947L46.1453 55.5783C46.94 51.2278 49.4236 47.3662 53 44.7755C49.4733 41.8426 47.0394 37.8343 46.0459 33.3861Z" fill="#E8D6DD"/>
<path d="M48.2315 17.4507C48.3309 18.7216 47.3374 19.8459 46.046 19.9437C44.7545 20.0414 43.6121 19.0638 43.5127 17.7929C43.4134 16.522 44.4068 15.3977 45.6983 15.2999C46.9897 15.2022 48.1322 16.1798 48.2315 17.4507Z" fill="#E8D6DD"/>
<path d="M52.1555 8.84755C52.2052 9.43413 51.7581 9.97183 51.1621 10.0207C50.566 10.0696 50.0196 9.62966 49.97 9.04308C49.9203 8.4565 50.3673 7.9188 50.9634 7.86992C51.6091 7.82104 52.1059 8.26097 52.1555 8.84755Z" fill="#E8D6DD"/>
</svg>
