<svg width="63" height="63" viewBox="0 0 63 63" fill="none" xmlns="http://www.w3.org/2000/svg">
<path d="M6.23589 34.8706C6.46723 34.8701 6.69249 34.7961 6.88233 34.6592L48.0884 4.93037L47.3969 8.87819C47.3443 9.18559 47.4111 9.50137 47.5837 9.75737C47.7558 10.0128 48.0191 10.187 48.3152 10.2415H48.5197C49.0775 10.2499 49.5584 9.83606 49.6536 9.26638L50.7875 2.53355V2.53303C50.8164 2.38195 50.8164 2.22615 50.7875 2.07507C50.7582 1.924 50.7 1.78027 50.6174 1.65176C50.5304 1.52324 50.4185 1.41518 50.2884 1.33491C50.1816 1.2641 50.0621 1.21584 49.9371 1.1938L43.4398 0.0187781H43.4393C42.8262 -0.0955767 42.239 0.32407 42.1242 0.958799C42.068 1.26568 42.1318 1.58355 42.3024 1.84164C42.4725 2.09921 42.7347 2.27651 43.0313 2.33369L46.841 3.0387L5.56629 32.7313C5.15727 33.0271 4.98262 33.5659 5.13651 34.0574C5.2904 34.5494 5.73638 34.8794 6.23551 34.8699L6.23589 34.8706Z" fill="#B2626F"/>
<path d="M61.2318 59.9585H57.2631V16.4824C57.2631 16.1708 57.1436 15.8718 56.931 15.6515C56.7184 15.4312 56.4298 15.3074 56.1291 15.3074H44.7899C44.1637 15.3074 43.656 15.8335 43.656 16.4824V59.9585H39.1203V30.5828C39.1203 30.2712 39.0008 29.9722 38.7882 29.7519C38.5756 29.5315 38.2871 29.4077 37.9864 29.4077H26.6472C26.021 29.4077 25.5132 29.9339 25.5132 30.5828V59.9585H20.9776V42.3331C20.9776 42.0215 20.8581 41.7225 20.6455 41.5022C20.4329 41.2818 20.1443 41.158 19.8436 41.158H8.50442C7.87823 41.158 7.3705 41.6842 7.3705 42.3331V59.9585H1.13392C0.507738 59.9585 0 60.4847 0 61.1336C0 61.7824 0.507738 62.3086 1.13392 62.3086H61.2318C61.858 62.3086 62.3657 61.7824 62.3657 61.1336C62.3657 60.4847 61.858 59.9585 61.2318 59.9585ZM9.63899 59.9585V43.5081H18.7104V59.9585H9.63899ZM27.7817 59.9585V31.7578H36.8531V59.9585H27.7817ZM45.9245 59.9585V17.6574H54.9959V59.9585H45.9245Z" fill="#B2626F"/>
</svg>
