<svg width="63" height="63" viewBox="0 0 63 63" fill="none" xmlns="http://www.w3.org/2000/svg">
<path d="M57.3193 29.2915H63.601V32.5457H57.3193V29.2915Z" fill="#B2626F"/>
<path d="M0 29.2915H7.06647V32.5457H0V29.2915Z" fill="#B2626F"/>
<path d="M30.6226 0H33.7631V6.50952H30.6226V0Z" fill="#B2626F"/>
<path d="M48.5125 12.02L53.5092 6.84204L55.7302 9.14356L50.7334 14.3215L48.5125 12.02Z" fill="#B2626F"/>
<path d="M8.6062 53.3437L13.603 48.1658L15.824 50.4673L10.8272 55.6453L8.6062 53.3437Z" fill="#B2626F"/>
<path d="M8.6189 9.12696L10.8399 6.82544L15.8367 12.0034L13.6157 14.3049L8.6189 9.12696Z" fill="#B2626F"/>
<path d="M48.5544 50.5351L50.7754 48.2336L55.7722 53.4114L53.5512 55.7129L48.5544 50.5351Z" fill="#B2626F"/>
<path d="M52.3725 31.2443C52.3725 19.6904 43.2641 10.252 32.1145 10.252C20.9647 10.252 11.8564 19.6905 11.8564 31.2443C11.8564 39.4622 16.4106 46.7852 23.4772 50.2026L23.5561 61.0243H27.482V65.9065H36.9042V61.0243H40.8302L40.7519 50.2837C47.8183 46.7852 52.3726 39.462 52.3726 31.2441L52.3725 31.2443ZM33.7634 62.6516H30.6229V61.0244H33.7634V62.6516ZM26.6963 57.7693L26.618 51.2599H37.6105V57.7693H26.6963ZM38.6314 47.6803L37.846 48.0055H33.6845V35.9635H33.3707V34.3363H26.3042V37.5906H30.544V48.0055H26.3824L25.597 47.6803C19.1581 44.914 14.9966 38.4858 14.9966 31.2443C14.9966 21.4806 22.6914 13.5066 32.1138 13.5066C41.536 13.5066 49.2311 21.4803 49.2311 31.2443C49.2322 38.4859 45.0701 44.9135 38.6318 47.6803H38.6314Z" fill="#B2626F"/>
</svg>
