<svg width="347" height="319" viewBox="0 0 347 319" fill="none" xmlns="http://www.w3.org/2000/svg">
<path id="Vector" d="M-46.3987 225.031C-53.9299 221.164 -61.461 217.297 -69.8915 215.68C-80.5516 213.77 -90.6352 215.538 -99.457 222.325C-102.852 224.972 -105.113 228.374 -106.788 232.225C-110.975 241.852 -111.494 251.982 -110.613 262.177C-109.671 272.049 -107.308 281.519 -103.95 290.71C-100.833 299.046 -97.006 307.182 -93.4629 315.399C-93.1203 316.07 -92.9197 316.782 -92.5771 317.453C-93.9978 317.854 -95.4185 318.254 -96.8392 318.655C-97.2002 317.374 -97.5612 316.093 -98.2063 314.893C-101.225 307.45 -104.567 299.945 -107.443 292.462C-109.474 286.891 -111.22 281.24 -112.683 275.509C-115.345 264.433 -116.08 253.121 -114.017 241.942C-112.656 234.801 -110.385 228.17 -105.683 222.544C-100.289 216.109 -93.3645 212.928 -85.5323 211.335C-75.2448 209.203 -65.499 211.677 -56.2045 215.815C-52.3169 217.637 -48.3273 219.277 -44.4397 221.099C-37.7576 224.13 -31.3412 227.851 -24.3933 230.193C-11.8346 234.485 0.537116 233.762 11.7558 225.685C17.121 221.869 22.1838 217.523 26.6199 212.587C32.8878 205.444 38.0226 197.546 41.842 188.79C42.4136 187.554 42.9452 186.175 43.4366 184.654C35.1516 181.922 28.2907 177.712 22.1836 172.369C17.7378 167.478 13.5361 162.366 11.1228 155.981C7.98416 148.111 7.46124 140.272 11.0951 132.49C18.0787 117.006 33.7445 119.808 41.3057 127.045C47.6535 133.242 51.3604 140.952 52.3061 149.747C52.7589 154.073 52.7855 158.52 53.0963 162.886C52.4343 167.066 51.9545 171.348 51.1504 175.568C50.8194 177.658 50.0221 179.726 49.2649 181.936C51.2103 182.309 52.7296 182.803 54.3108 182.971C70.8725 184.6 85.9904 181.106 99.4053 171.027C107.007 165.352 113.942 158.943 120.392 151.902C124.624 147.33 128.452 142.412 132.461 137.595C135.149 134.073 137.877 130.693 140.565 127.171C148.73 116.422 158.087 107.18 169.506 99.8138C174.707 96.5044 180.251 93.8664 186.036 92.0821C187.031 91.8018 187.843 91.4192 188.797 90.9966C192.509 90.5644 196.364 90.0923 200.116 89.8024C209.264 89.0668 217.326 91.5551 223.875 98.4636C224.319 98.9526 224.724 99.2994 225.168 99.7884C225.35 99.8907 225.533 99.9929 225.715 100.095C234.1 96.6561 242.344 93.2572 250.627 90.0005C259.723 86.3613 267.992 81.4194 275.877 75.6639C282.117 71.1404 288.094 66.2301 294.293 61.5644C307.566 51.5256 319.061 39.5308 330.191 27.3316C337.089 19.7043 341.659 10.8902 344.367 0.911583C344.429 0.586972 344.673 0.364591 344.876 -6.95714e-05C345.558 2.4187 346.2 4.6952 346.882 7.11397C346.638 7.33635 346.434 7.701 346.19 7.92338C342.772 18.1023 336.621 26.7477 329.256 34.3529C320.57 43.2523 312.328 52.6407 302.49 60.1753C293.464 67.3273 284.438 74.4792 275.008 81.2845C266.878 87.2624 257.881 91.7954 248.461 95.3724C241.66 97.904 235.081 100.68 228.218 103.536C229.749 106.791 231.302 109.578 232.57 112.446C236.478 120.867 237.748 129.724 234.435 138.645C232.021 145.315 228.252 150.985 221.571 153.944C217.896 155.594 213.965 154.706 211.297 151.772C205.882 145.619 202.274 138.803 203.7 130.261C205.271 120.603 209.717 112.438 217.261 106.011C218.623 104.859 219.883 103.889 221.245 102.737C221.387 102.697 221.347 102.555 221.409 102.23C219.27 98.9938 216.052 96.829 212.325 95.5759C205.884 93.3984 199.272 93.8801 192.718 95.1132C188.944 95.8699 185.513 97.298 181.819 98.3393C178.082 100.314 173.94 101.943 170.425 104.162C163.293 108.784 156.908 114.423 151.332 120.756C148.076 124.439 145.367 128.428 142.475 132.315C141.579 133.489 140.501 134.561 139.747 135.695C129.645 149.908 117.48 162.246 103.982 173.116C97.7203 178.106 90.8942 182.181 83.2007 184.81C74.3306 187.618 65.183 188.354 55.9804 187.262C53.6087 187.009 51.1567 186.471 48.4608 186.156C47.4813 188.122 46.5018 190.087 45.6644 192.013C40.9056 202.877 34.1027 212.474 25.3978 220.764C20.6593 225.172 15.7603 229.01 10.2346 232.257C0.483508 237.924 -9.85909 238.229 -20.4356 235.528C-27.5473 233.693 -34.3715 230.702 -40.8898 227.164C-43.2398 226.444 -44.7992 225.808 -46.3987 225.031ZM48.5902 164.31C48.9197 156.231 48.6408 148.169 45.5423 140.442C43.2493 134.484 39.5139 129.394 33.2763 126.851C26.4922 124.003 19.7381 124.524 15.8201 132.387C12.8415 138.141 11.9906 144.371 13.8975 150.591C16.3257 158.661 20.6845 165.419 27.258 170.785C32.4141 175.475 38.3859 178.706 45.2134 180.621C47.0555 175.187 48.4713 169.873 48.5902 164.31ZM224.215 106.201C216.333 110.88 211.912 117.502 208.744 125.306C206.68 130.496 207.231 135.716 208.817 140.798C209.7 143.928 211.435 146.818 214.186 148.961C216.795 151.143 218.842 151.334 221.505 149.355C223.293 148.083 225.001 146.526 226.203 144.805C233.556 134.439 233.083 123.513 227.947 112.367C226.919 110.353 225.425 108.317 224.215 106.201Z" fill="#8985B0"/>
</svg>
