<svg width="173" height="249" viewBox="0 0 173 249" fill="none" xmlns="http://www.w3.org/2000/svg">
<path id="Vector" d="M172.686 228.753C167.723 226.559 162.718 224.146 157.755 221.952C138.558 213.045 119.098 205.098 97.9242 202.25C95.615 202.026 93.3057 201.802 90.0813 201.532C93.5891 210.136 95.8777 218.301 95.071 226.85C91.7429 232.949 88.1968 239.092 81.6503 242.652C67.9891 250.339 54.1305 250.128 40.4216 242.632C34.2857 239.082 31.5581 232.138 32.8409 224.855C34.6976 214.738 40.0769 207.553 49.1967 203.258C56.8764 199.7 64.9032 196.754 73.6212 196.166C75.1904 196.083 76.8915 195.52 78.8537 195.133C78.3776 193.866 78.1195 192.557 77.4684 191.552C75.9051 189.366 74.0808 187.005 72.1245 185.124C61.6488 174.495 50.3871 164.475 38.0323 155.804C16.4981 140.783 4.39376 119.592 1.36622 93.8862C-0.677876 75.4694 3.07272 57.7222 15.7935 42.9651C16.8865 41.6154 17.6755 39.8723 18.7256 38.3044C23.2269 33.5606 27.2491 28.6846 32.0975 24.5525C42.3192 15.5042 54.6664 10.3445 67.7507 6.62653C76.7756 5.29753 85.9326 3.48894 95.0436 2.59645C105.942 1.57773 116.751 1.25686 127.474 0.499462C127.775 2.02726 128.033 3.3368 128.334 4.86461C126.329 5.0339 124.367 5.42144 122.362 5.59073C106.67 6.42245 91.2394 7.42938 75.7598 10.4867C61.0662 12.9353 47.5859 18.0921 36.0991 27.6169C31.4257 31.4877 27.6215 36.3206 23.5133 40.7601C21.8522 42.6755 20.4521 44.766 18.834 46.8996C14.7688 51.5573 11.2686 56.7837 9.94573 62.7138C8.57395 70.6943 6.94113 78.4997 6.44144 86.308C5.58878 95.7733 8.48553 104.725 11.5573 113.415C16.4015 127.651 25.001 139.104 36.6128 148.602C45.2241 155.517 53.7923 162.215 62.3606 168.912C67.6215 173.769 72.8823 178.626 77.9681 183.743C80.5325 186.411 82.7899 189.82 84.7863 193.054C86.1316 195.283 87.8728 196.073 90.1821 196.297C113.45 198.277 135.309 205.751 156.289 215.666C161.513 218.035 166.605 220.884 171.611 223.297C171.955 225.043 172.342 227.007 172.686 228.753ZM67.4617 201.691C63.6234 202.903 59.5239 203.939 55.7716 205.587C48.2239 208.665 42.1964 213.711 38.9944 221.599C35.7924 229.488 38.3881 236.911 46.2251 239.899C56.7615 243.94 67.5678 244.753 77.8237 239.326C85.8534 235.246 90.0106 228.756 89.6871 219.07C89.3088 213.702 86.8363 209.202 85.1929 204.311C84.1976 201.56 82.1954 200.595 79.5361 200.894C75.5256 201.232 71.4722 201.353 67.4617 201.691Z" fill="#8985B0"/>
</svg>
