<svg width="299" height="99" viewBox="0 0 299 99" fill="none" xmlns="http://www.w3.org/2000/svg">
<path d="M371.758 97.6278C351.105 97.6278 351.105 75.3291 330.451 75.3291C309.798 75.3291 309.798 97.6278 289.145 97.6278C268.492 97.6278 268.492 75.3291 247.838 75.3291C227.185 75.3291 227.185 97.6278 206.532 97.6278C185.879 97.6278 185.879 75.3291 165.226 75.3291C144.572 75.3291 144.572 97.6278 123.919 97.6278C103.266 97.6278 103.266 75.3291 82.6128 75.3291C61.9596 75.3291 61.9596 97.6278 41.3064 97.6278C20.6532 97.6278 20.6532 75.3291 0 75.3291" stroke="#B2626F" stroke-miterlimit="10"/>
<path d="M371.758 60.4633C351.105 60.4633 351.105 38.1646 330.451 38.1646C309.798 38.1646 309.798 60.4633 289.145 60.4633C268.492 60.4633 268.492 38.1646 247.839 38.1646C227.185 38.1646 227.185 60.4633 206.532 60.4633C185.879 60.4633 185.879 38.1646 165.226 38.1646C144.573 38.1646 144.573 60.4633 123.919 60.4633C103.266 60.4633 103.266 38.1646 82.6129 38.1646C63.278 38.1646 63.278 60.4633 43.0642 60.4633C22.411 60.4633 22.411 38.1646 1.75781 38.1646" stroke="#B2626F" stroke-miterlimit="10"/>
<path d="M371.758 23.2987C351.105 23.2987 351.105 1 330.451 1C309.798 1 309.798 23.2987 289.145 23.2987C268.492 23.2987 268.492 1 247.839 1C227.185 1 227.185 23.2987 206.532 23.2987C185.879 23.2987 185.879 1 165.226 1C144.573 1 144.573 23.2987 123.919 23.2987C103.266 23.2987 103.266 1 82.6129 1C63.278 1 63.278 23.2987 43.0642 23.2987C22.411 23.2987 22.411 1 1.75781 1" stroke="#B2626F" stroke-miterlimit="10"/>
</svg>
