<svg width="63" height="63" viewBox="0 0 63 63" fill="none" xmlns="http://www.w3.org/2000/svg">
<path d="M27.9644 19.9847H34.7144V15.9877H30.8573V13.9893H27.0002V16.0877C25.8284 16.3342 24.7869 17.0232 24.0777 18.0207C23.3686 19.0183 23.0424 20.2533 23.1626 21.4861C23.2828 22.7188 23.8407 23.8613 24.728 24.6918C25.6153 25.5222 26.7688 25.9814 27.9644 25.9802H29.893C30.1487 25.9802 30.394 26.0855 30.5748 26.2728C30.7557 26.4602 30.8573 26.7144 30.8573 26.9794C30.8573 27.2444 30.7557 27.4986 30.5748 27.686C30.394 27.8734 30.1487 27.9787 29.893 27.9787H23.143V31.9756H27.0002V33.9741H30.8573V31.8757C32.029 31.6292 33.0706 30.9402 33.7797 29.9426C34.4888 28.9451 34.815 27.71 34.6948 26.4773C34.5747 25.2446 34.0168 24.1021 33.1294 23.2716C32.2421 22.4411 31.0886 21.982 29.893 21.9832H27.9644C27.7087 21.9832 27.4634 21.8779 27.2826 21.6905C27.1017 21.5031 27.0002 21.249 27.0002 20.984C27.0002 20.7189 27.1017 20.4648 27.2826 20.2774C27.4634 20.09 27.7087 19.9847 27.9644 19.9847Z" fill="#B2626F"/>
<path d="M52.0714 17.9863H48.1757C48.1203 16.4073 47.7528 14.857 47.096 13.4311C46.4391 12.0052 45.507 10.7342 44.3571 9.6966V1.99848C44.3571 1.62733 44.2574 1.26353 44.0691 0.947815C43.8808 0.632104 43.6114 0.376964 43.2911 0.210985C42.9707 0.0450061 42.6121 -0.0252543 42.2554 0.00807617C41.8987 0.0414067 41.558 0.177011 41.2714 0.399695L34.0721 5.99542H25.0714C14.445 5.99542 6.82136 12.4725 5.886 21.9832H5.78571C5.27423 21.9832 4.78369 21.7727 4.42201 21.3979C4.06033 21.0231 3.85714 20.5148 3.85714 19.9847V15.9878H0V19.9847C0.0015317 21.5743 0.611588 23.0984 1.69629 24.2224C2.78099 25.3464 4.25172 25.9786 5.78571 25.9802H5.92071C6.2004 28.6007 7.02228 31.1279 8.33028 33.3893C9.63828 35.6507 11.4016 37.5932 13.5 39.0842V45.9649C13.5 46.4949 13.7032 47.0033 14.0649 47.378C14.4265 47.7528 14.9171 47.9634 15.4286 47.9634H23.1429C23.6543 47.9634 24.1449 47.7528 24.5066 47.378C24.8682 47.0033 25.0714 46.4949 25.0714 45.9649V41.968H30.8571V45.9649C30.8571 46.4949 31.0603 47.0033 31.422 47.378C31.7837 47.7528 32.2742 47.9634 32.7857 47.9634H40.5C41.0115 47.9634 41.502 47.7528 41.8637 47.378C42.2254 47.0033 42.4286 46.4949 42.4286 45.9649V39.244C43.8217 38.5597 45.0397 37.5451 45.9842 36.2823C46.9287 35.0196 47.5731 33.5443 47.8652 31.9756H52.0714C52.5829 31.9756 53.0735 31.765 53.4351 31.3902C53.7968 31.0155 54 30.5071 54 29.9771V19.9847C54 19.4547 53.7968 18.9464 53.4351 18.5716C53.0735 18.1968 52.5829 17.9863 52.0714 17.9863ZM50.1429 27.9786H44.5963C44.0081 33.4804 43.0071 34.9433 38.5714 36.6021V43.9664H34.7143V37.971H21.2143V43.9664H17.3571V36.728C15.035 35.5831 13.0758 33.776 11.7095 31.5184C10.3432 29.2609 9.6263 26.6464 9.64286 23.9817C9.64286 14.3191 17.3919 9.99237 25.0714 9.99237H35.3565L40.5 5.99542V11.5432C45.1633 15.2603 44.1894 17.9103 44.3919 21.9832H50.1429V27.9786Z" fill="#B2626F"/>
</svg>
