<svg width="48" height="24" viewBox="0 0 48 24" fill="none" xmlns="http://www.w3.org/2000/svg">
<path d="M44.5651 15.6506C44.3187 15.4042 39.0955 10.2301 34.9959 8.09185H36.4643C36.7403 8.09185 36.9572 7.87496 36.9572 7.59895C36.9572 7.32293 36.7403 7.10605 36.4643 7.10605H34.9859C34.7099 7.10605 34.493 7.32293 34.493 7.59895C34.493 7.70722 34.5326 7.80587 34.5917 7.89455C34.2761 7.74675 33.9805 7.61854 33.6849 7.51027C33.6258 7.49068 33.5567 7.46112 33.478 7.44118C33.4089 7.24423 33.2315 7.10605 33.0147 7.10605H32.6304C32.5417 6.97784 32.3939 6.88917 32.2261 6.88917C32.0588 6.88917 31.9106 6.97784 31.8219 7.10605H31.5854C29.1117 6.84997 25.0612 6.86957 19.4635 7.16517C19.3945 7.12564 19.3157 7.10605 19.2271 7.10605H17.7487C17.6009 7.10605 17.4631 7.17514 17.374 7.28341C16.9798 7.303 16.5855 7.33256 16.2112 7.3525C16.1225 7.20469 15.9648 7.09642 15.7874 7.09642H14.309C14.0626 7.09642 13.8557 7.28375 13.8261 7.52023C13.481 7.54979 13.1462 7.56938 12.8307 7.59894C12.8307 7.32293 12.6138 7.10604 12.3378 7.10604H10.8594C10.5834 7.10604 10.3665 7.32293 10.3665 7.59894C10.3665 7.66803 10.3861 7.73677 10.4157 7.80587H10.3961C9.99188 7.84539 9.61757 7.87495 9.26285 7.91414C9.33193 7.82546 9.38109 7.71719 9.38109 7.59861C9.38109 7.3226 9.16421 7.10571 8.88819 7.10571H7.40982C7.32114 7.10571 7.23246 7.13527 7.15374 7.17479C7.07503 7.00741 6.90729 6.88916 6.71034 6.88916C6.43433 6.88916 6.21744 7.10605 6.21744 7.38206V8.42663C6.14835 8.48575 6.07961 8.55483 6.02048 8.63355C5.94177 8.74182 5.89228 8.86006 5.86271 8.97865C5.85274 9.0278 5.55714 10.2597 5.48806 11.8072C5.39938 13.9854 5.78366 15.7098 6.6412 16.9122C6.85809 17.2078 7.22278 17.3655 7.57754 17.3164C7.97179 17.2573 8.37566 17.2081 8.76993 17.149H8.88817C8.95726 17.149 9.026 17.1294 9.08513 17.1095C9.53849 17.0504 10.0015 16.9912 10.4548 16.9321C10.5435 17.0603 10.6913 17.149 10.859 17.149H12.3374C12.6134 17.149 12.8303 16.9321 12.8303 16.6561C13.1654 16.6166 13.5006 16.587 13.8257 16.5478C13.8157 16.5774 13.8157 16.6169 13.8157 16.6465C13.8157 16.9225 14.0326 17.1394 14.3086 17.1394H15.787C16.063 17.1394 16.2799 16.9225 16.2799 16.6465C16.2799 16.5282 16.2307 16.41 16.1617 16.3309C16.615 16.2914 17.0684 16.2619 17.5118 16.2227C17.364 16.3114 17.2654 16.4691 17.2654 16.6465C17.2654 16.9225 17.4823 17.1394 17.7583 17.1394H19.2366C19.5126 17.1394 19.7295 16.9225 19.7295 16.6465C19.7295 16.3705 19.5127 16.1536 19.2366 16.1536H18.4681C23.0901 15.848 27.5155 15.7989 31.8316 16.0157C31.8711 16.0749 31.9202 16.1144 31.9794 16.1536H31.5655C31.2895 16.1536 31.0726 16.3705 31.0726 16.6465C31.0726 16.9225 31.2895 17.1394 31.5655 17.1394H33.0439C33.3199 17.1394 33.5368 16.9225 33.5368 16.6465C33.5368 16.3705 33.3199 16.1536 33.0439 16.1536L32.4829 16.1532C32.5225 16.1237 32.5616 16.0941 32.5912 16.0546C33.3206 16.0941 34.0496 16.1433 34.7694 16.2024C34.602 16.2811 34.4934 16.4488 34.4934 16.6458C34.4934 16.9218 34.7103 17.1387 34.9863 17.1387H36.4646C36.7407 17.1387 36.9575 16.9218 36.9575 16.6458C36.9575 16.5471 36.928 16.4684 36.8885 16.3897C37.2531 16.4292 37.6079 16.4588 37.9725 16.498C37.9626 16.5471 37.9529 16.5867 37.9529 16.6358C37.9529 16.9118 38.1698 17.1287 38.4458 17.1287H39.9242C40.1411 17.1287 40.3284 16.9809 40.3875 16.7836C40.7622 16.8328 41.1365 16.8823 41.5112 16.9414C41.5999 17.0497 41.7377 17.1287 41.8955 17.1287H42.7331C43.0583 17.1779 43.3934 17.237 43.7186 17.2865C43.7777 17.2965 43.8269 17.2965 43.886 17.2965C44.2507 17.2965 44.5954 17.0895 44.7632 16.7644C44.9398 16.4196 44.8707 15.9563 44.5655 15.6507L44.5651 15.6506ZM7.18395 8.05225C7.24307 8.08181 7.32178 8.1014 7.39087 8.1014H7.53868C7.41047 8.121 7.29222 8.13096 7.18396 8.14093L7.18395 8.05225ZM32.679 14.1131C32.6099 13.9258 32.4326 13.7976 32.2157 13.7976C32.0284 13.7976 31.861 13.9059 31.7819 14.0636C24.3018 13.6989 16.4967 14.1031 7.94198 15.2856C7.22257 13.7581 7.39993 11.4125 7.63641 10.0724C9.24298 9.8754 13.9733 9.44162 19.2559 9.15599C25.1593 8.84046 29.5642 8.83083 31.801 9.11646C31.8897 9.26427 32.0475 9.36291 32.2248 9.36291C32.3431 9.36291 32.4613 9.31376 32.55 9.24467C32.7373 9.2842 32.8951 9.32338 33.023 9.37287C35.3685 10.2205 38.6895 12.9404 40.8777 14.9016C38.1682 14.527 35.4483 14.2709 32.6789 14.1132L32.679 14.1131Z" fill="#B2626F"/>
<path d="M3.94236 8.10104H5.42073C5.69674 8.10104 5.91363 7.88415 5.91363 7.60813C5.91363 7.33212 5.69675 7.11523 5.42073 7.11523H3.94236C3.66636 7.11523 3.44946 7.33212 3.44946 7.60813C3.44946 7.88449 3.67597 8.10104 3.94236 8.10104Z" fill="#B2626F"/>
<path d="M41.6385 8.03253V8.87018C41.6385 9.14619 41.8554 9.36308 42.1314 9.36308C42.4074 9.36308 42.6243 9.1462 42.6243 8.87018V8.10161H43.3633C43.6393 8.10161 43.8562 7.88473 43.8562 7.60871C43.8562 7.3327 43.6393 7.11581 43.3633 7.11581H42.5452C42.4565 6.9876 42.3087 6.89893 42.141 6.89893C41.9537 6.89893 41.7959 6.99757 41.7172 7.155C41.5299 7.22409 41.4016 7.40145 41.4016 7.61834C41.392 7.78607 41.4907 7.94384 41.6385 8.03252V8.03253Z" fill="#B2626F"/>
<path d="M45.3342 8.10104H46.8126C47.0886 8.10104 47.3055 7.88415 47.3055 7.60813C47.3055 7.33212 47.0886 7.11523 46.8126 7.11523H45.3342C45.0582 7.11523 44.8413 7.33212 44.8413 7.60813C44.8413 7.88449 45.0682 8.10104 45.3342 8.10104Z" fill="#B2626F"/>
<path d="M1.97127 7.11646H0.492901C0.216894 7.11646 0 7.33334 0 7.60936C0 7.88537 0.216885 8.10226 0.492901 8.10226H1.97127C2.24728 8.10226 2.46417 7.88537 2.46417 7.60936C2.46417 7.33334 2.24729 7.11646 1.97127 7.11646Z" fill="#B2626F"/>
<path d="M38.4355 8.10104H39.9139C40.1899 8.10104 40.4068 7.88415 40.4068 7.60813C40.4068 7.33212 40.1899 7.11523 39.9139 7.11523H38.4355C38.1595 7.11523 37.9426 7.33212 37.9426 7.60813C37.9426 7.88449 38.1691 8.10104 38.4355 8.10104Z" fill="#B2626F"/>
<path d="M1.97127 16.1821H0.492901C0.216894 16.1821 0 16.399 0 16.675C0 16.951 0.216885 17.1679 0.492901 17.1679H1.97127C2.24728 17.1679 2.46417 16.951 2.46417 16.675C2.46417 16.399 2.24729 16.1821 1.97127 16.1821Z" fill="#B2626F"/>
<path d="M22.6672 16.1821H21.1888C20.9128 16.1821 20.6959 16.399 20.6959 16.675C20.6959 16.951 20.9128 17.1679 21.1888 17.1679H22.6672C22.9432 17.1679 23.1601 16.951 23.1601 16.675C23.1601 16.399 22.9432 16.1821 22.6672 16.1821Z" fill="#B2626F"/>
<path d="M5.42061 16.1821H3.94224C3.66623 16.1821 3.44934 16.399 3.44934 16.675C3.44934 16.951 3.66623 17.1679 3.94224 17.1679H5.42061C5.69662 17.1679 5.91351 16.951 5.91351 16.675C5.91351 16.399 5.69663 16.1821 5.42061 16.1821Z" fill="#B2626F"/>
<path d="M46.8125 16.1821H45.3341C45.0581 16.1821 44.8412 16.399 44.8412 16.675C44.8412 16.951 45.0581 17.1679 45.3341 17.1679H46.8125C47.0885 17.1679 47.3054 16.951 47.3054 16.675C47.305 16.399 47.0885 16.1821 46.8125 16.1821Z" fill="#B2626F"/>
<path d="M26.1165 16.1821H24.6382C24.3622 16.1821 24.1453 16.399 24.1453 16.675C24.1453 16.951 24.3621 17.1679 24.6382 17.1679H26.1165C26.3925 17.1679 26.6094 16.951 26.6094 16.675C26.6091 16.399 26.3922 16.1821 26.1165 16.1821Z" fill="#B2626F"/>
<path d="M29.5659 16.1821H28.0875C27.8115 16.1821 27.5946 16.399 27.5946 16.675C27.5946 16.951 27.8115 17.1679 28.0875 17.1679H29.5659C29.8419 17.1679 30.0588 16.951 30.0588 16.675C30.0584 16.399 29.8419 16.1821 29.5659 16.1821Z" fill="#B2626F"/>
<path d="M42.1312 10.3484C41.8552 10.3484 41.6383 10.5653 41.6383 10.8413V12.3197C41.6383 12.5957 41.8552 12.8126 42.1312 12.8126C42.4072 12.8126 42.6241 12.5957 42.6241 12.3197V10.8413C42.6238 10.5649 42.4069 10.3484 42.1312 10.3484Z" fill="#B2626F"/>
<path d="M42.1312 17.2471C41.8552 17.2471 41.6383 17.464 41.6383 17.74V19.2183C41.6383 19.4943 41.8552 19.7112 42.1312 19.7112C42.4072 19.7112 42.6241 19.4944 42.6241 19.2183V17.74C42.6238 17.464 42.4069 17.2471 42.1312 17.2471Z" fill="#B2626F"/>
<path d="M42.1312 20.6965C41.8552 20.6965 41.6383 20.9134 41.6383 21.1894V22.6678C41.6383 22.9438 41.8552 23.1607 42.1312 23.1607C42.4072 23.1607 42.6241 22.9438 42.6241 22.6678V21.1894C42.6238 20.9134 42.4069 20.6965 42.1312 20.6965Z" fill="#B2626F"/>
<path d="M42.1312 5.91339C42.4072 5.91339 42.6241 5.6965 42.6241 5.42049V3.94212C42.6241 3.66611 42.4072 3.44922 42.1312 3.44922C41.8552 3.44922 41.6383 3.6661 41.6383 3.94212V5.42049C41.6383 5.68687 41.8648 5.91339 42.1312 5.91339Z" fill="#B2626F"/>
<path d="M42.1312 2.46417C42.4072 2.46417 42.6241 2.24729 42.6241 1.97127V0.492902C42.6241 0.216894 42.4072 0 42.1312 0C41.8552 0 41.6383 0.216886 41.6383 0.492902V1.97127C41.6383 2.23731 41.8648 2.46417 42.1312 2.46417Z" fill="#B2626F"/>
<path d="M32.2162 2.46417C32.4922 2.46417 32.7091 2.24729 32.7091 1.97127V0.492902C32.7091 0.216894 32.4922 0 32.2162 0C31.9402 0 31.7233 0.216886 31.7233 0.492902V1.97127C31.7236 2.23731 31.9501 2.46417 32.2162 2.46417Z" fill="#B2626F"/>
<path d="M32.2162 10.3484C31.9402 10.3484 31.7233 10.5653 31.7233 10.8413V12.3197C31.7233 12.5957 31.9402 12.8126 32.2162 12.8126C32.4922 12.8126 32.7091 12.5957 32.7091 12.3197V10.8413C32.7091 10.5649 32.4922 10.3484 32.2162 10.3484Z" fill="#B2626F"/>
<path d="M32.2162 17.2471C31.9402 17.2471 31.7233 17.464 31.7233 17.74V19.2183C31.7233 19.4943 31.9402 19.7112 32.2162 19.7112C32.4922 19.7112 32.7091 19.4944 32.7091 19.2183V17.74C32.7091 17.464 32.4922 17.2471 32.2162 17.2471Z" fill="#B2626F"/>
<path d="M32.2162 20.6965C31.9402 20.6965 31.7233 20.9134 31.7233 21.1894V22.6678C31.7233 22.9438 31.9402 23.1607 32.2162 23.1607C32.4922 23.1607 32.7091 22.9438 32.7091 22.6678V21.1894C32.7091 20.9134 32.4922 20.6965 32.2162 20.6965Z" fill="#B2626F"/>
<path d="M32.2162 5.91339C32.4922 5.91339 32.7091 5.6965 32.7091 5.42049V3.94212C32.7091 3.66611 32.4922 3.44922 32.2162 3.44922C31.9402 3.44922 31.7233 3.6661 31.7233 3.94212V5.42049C31.7236 5.68687 31.9501 5.91339 32.2162 5.91339Z" fill="#B2626F"/>
<path d="M6.69212 17.2471C6.41611 17.2471 6.19922 17.464 6.19922 17.74V19.2183C6.19922 19.4943 6.4161 19.7112 6.69212 19.7112C6.96813 19.7112 7.18502 19.4944 7.18502 19.2183V17.74C7.18502 17.464 6.95817 17.2471 6.69212 17.2471Z" fill="#B2626F"/>
<path d="M6.69212 2.46417C6.96813 2.46417 7.18502 2.24729 7.18502 1.97127V0.492902C7.18502 0.216894 6.96814 0 6.69212 0C6.41611 0 6.19922 0.216886 6.19922 0.492902V1.97127C6.19922 2.23731 6.4161 2.46417 6.69212 2.46417Z" fill="#B2626F"/>
<path d="M6.69212 20.6965C6.41611 20.6965 6.19922 20.9134 6.19922 21.1894V22.6678C6.19922 22.9438 6.4161 23.1607 6.69212 23.1607C6.96813 23.1607 7.18502 22.9438 7.18502 22.6678V21.1894C7.18502 20.9134 6.95817 20.6965 6.69212 20.6965Z" fill="#B2626F"/>
<path d="M6.69212 5.91339C6.96813 5.91339 7.18502 5.6965 7.18502 5.42049V3.94212C7.18502 3.66611 6.96814 3.44922 6.69212 3.44922C6.41611 3.44922 6.19922 3.6661 6.19922 3.94212V5.42049C6.19922 5.68687 6.4161 5.91339 6.69212 5.91339Z" fill="#B2626F"/>
</svg>
