<svg width="22" height="45" viewBox="0 0 22 45" fill="none" xmlns="http://www.w3.org/2000/svg">
<path fill-rule="evenodd" clip-rule="evenodd" d="M17.4649 0C17.5107 0.305397 17.5345 0.617908 17.5345 0.935955V14.1151C17.5345 17.5663 14.7358 20.3628 11.2836 20.3628C7.83052 20.3628 5.0328 17.5657 5.0328 14.1151V0.935955C5.0328 0.617876 5.05662 0.305366 5.10242 0L17.4649 0ZM4.14002 8.92548C1.94778 10.8875 0.568089 13.7394 0.568089 16.9147V44.2662H2.35405V16.8973C2.35405 14.8863 3.01868 13.0308 4.14002 11.5382V8.92548ZM18.4281 8.92578C20.6206 10.8884 22 13.7403 22 16.915V44.2665H20.214V16.8976C20.214 14.8866 19.5494 13.0311 18.4281 11.5385V8.92578ZM15.7492 1.77083H14.8562V10.6242H15.7492V1.77083Z" fill="#B2626F"/>
</svg>
